<?xml version="1.0" encoding="UTF-8"?>
<svg id="a" xmlns="http://www.w3.org/2000/svg" version="1.1" viewBox="0 0 338 76">
  <!-- Generator: Adobe Illustrator 30.0.0, SVG Export Plug-In . SVG Version: 2.1.1 Build 123)  -->
  <defs>
    <style>
      .st0 {
        fill: #fff;
      }
    </style>
  </defs>
  <path class="st0" d="M33.5,63.8c-1.4,0-2.7-.3-3.6-.7-5-2.6-19.5-10.3-19.5-10.3-2.6-1.5-3.9-4-4.2-5.8-.6-3.2-1.3-7-2.1-11.1C2.8,29,1.3,21.5,0,14.9c-.3-1.6.6-3.2,2.1-3.8C11.7,7.4,27.9,1,28.4.8c1.1-.3,2.9-.8,5-.8s4,.4,5.1.8c.5.2,17.4,6.8,26.3,10.4,1.5.6,2.4,2.2,2.1,3.8-1.3,6.6-2.7,14.1-4,20.8-.8,4.1-1.5,8-2.1,11.2-.3,1.8-1.7,4.4-4.2,5.8,0,0-14.5,7.7-19.5,10.3-.9.5-2.2.7-3.6.7h0ZM33.4,10.2c-3,0-5,.7-6.3,2.1-1.6,1.7-1.8,2.8-1.5,5.7.7,8.8,2.7,34.3,2.8,34.6v.2h.3c1.2.5,2.8,1.1,4.9,1.1s3.8-.6,4.9-1h.3v-.2c0-.3,2-25.8,2.8-34.6.2-2.9,0-4-1.5-5.7-1.3-1.4-3.3-2.1-6.3-2.1h-.2ZM52.3,14.9c-1.5,0-4.1.7-4.5,5.1-.8,8.4-2.8,29.8-2.8,29.8v.4s.3-.2.3-.2c0,0,3.5-1.4,4.7-1.9,4-1.7,4.5-4.3,4.8-6.2v-.5c.9-4.5,2.5-13,3.5-17.9v-.6c.4-1.6.7-5.4-3.2-7.3-.9-.4-1.9-.7-2.8-.7ZM14.7,14.9c-.9,0-1.9.2-2.8.7-3.9,1.9-3.6,5.7-3.3,7.3v.2c.9,4.8,2.6,13.7,3.5,18.3v.5c.4,1.9.9,4.5,4.9,6.2,1.2.5,4.7,1.9,4.7,1.9l.4.2v-.4s-2.1-21.4-2.9-29.8c-.4-4.5-3-5.1-4.5-5.1h0Z"/>
  <polygon class="st0" points="134.5 58 156.8 58 156.8 56.3 150.8 54.1 147.2 9.6 153.1 7.4 153.1 5.7 136.5 5.7 119.6 46.5 102.6 5.7 85 5.7 85 7.4 91.3 9.9 88.2 54 82.1 56.3 82.1 58 98.9 58 98.9 56.3 92.8 54 95.2 14.2 113.9 58.4 119.4 58.4 137.7 14.1 140.7 54.3 134.5 56.3 134.5 58"/>
  <path class="st0" d="M192.1,24.4h-12.7v1.7l4.4,1.4-7.5,21.1-9.7-21,4.6-1.6v-1.7h-19.3v1.7l4.7,2,15.4,30.9-1.9,4.7c-.6,1.3-1.2,2.4-1.8,3.1-.6.7-1.2,1.2-1.8,1.5s-1.3.4-2,.4-1.5-.1-2-.3c-.6-.2-1.1-.5-1.5-.7-.5-.2-.9-.3-1.4-.3s-1,.2-1.5.5c-.5.3-.9.8-1.3,1.4-.3.6-.5,1.3-.5,2.1,0,1.5.5,2.7,1.5,3.5,1,.8,2.3,1.3,3.9,1.3s3.3-.3,4.6-1c1.3-.7,2.6-1.9,3.8-3.8s2.4-4.4,3.7-7.8l14.4-35.8,3.9-1.4v-1.7h0Z"/>
  <path class="st0" d="M213.9,51.6c-1.4.5-2.8.8-4.4.8-2.4,0-4.5-.6-6.3-1.7s-3.2-2.8-4.1-4.9c-1-2.2-1.5-4.8-1.5-7.9s.3-4.5,1-6c.7-1.6,1.6-2.7,2.7-3.5,1.1-.7,2.3-1.1,3.5-1.1s1.3.2,1.9.6,1.2.8,1.7,1.4,1.1,1.1,1.7,1.7c.6.5,1.2,1,1.9,1.4.7.4,1.5.6,2.3.6s1.6-.2,2.2-.5c.7-.3,1.2-.9,1.6-1.5s.6-1.4.6-2.2-.3-1.7-1-2.5c-.6-.8-1.7-1.4-3.1-2-1.4-.5-3.3-.8-5.7-.8s-6,.5-8.5,1.5c-2.5,1-4.6,2.3-6.3,4s-3,3.7-3.9,6-1.4,4.7-1.4,7.2.7,6,2,8.6,3.2,4.5,5.6,6c2.4,1.5,5.2,2.2,8.4,2.2s3.4-.3,5-.8,3.2-1.4,4.7-2.6c1.5-1.2,3-2.7,4.5-4.6l-1.3-1.6c-1.4,1.1-2.7,1.8-4.1,2.4h0Z"/>
  <path class="st0" d="M249.4,25c-.7-.8-1.8-1.2-3.3-1.2s-1.7.2-2.7.5-2,.8-3.1,1.5-2.3,1.5-3.5,2.5c-.6.5-1.1,1-1.8,1.5l-.7-6.3h-1.1l-12.4,4.4v1.2c.8.3,1.5.6,2.2.9s1.2.7,1.8,1c.5.4,1,.8,1.3,1.3v22.1l-5.1,2v1.5h19.8v-1.5l-5.6-2.1v-21.8c0,0,.1,0,.2-.1.6-.3,1.2-.5,1.9-.7.6-.1,1.2-.2,1.9-.2s1.5.1,2.1.3c.6.2,1.2.4,1.9.7s1.4.3,2.3.3c1.4,0,2.5-.4,3.6-1.2,1-.8,1.5-2,1.5-3.6s-.3-2.2-1-3h0Z"/>
  <path class="st0" d="M277,25.6c-2.6-1.5-5.7-2.2-9.3-2.2s-6.6.8-9.3,2.3c-2.7,1.6-4.8,3.7-6.4,6.4-1.5,2.7-2.3,5.9-2.3,9.4s.7,6.4,2.1,9c1.4,2.6,3.5,4.6,6.1,6.1s5.7,2.2,9.3,2.2,6.6-.8,9.3-2.3,4.8-3.7,6.4-6.5,2.3-5.9,2.3-9.4-.7-6.4-2.1-9-3.5-4.6-6.1-6.1h0ZM274.6,50c-.7,1.9-1.6,3.2-2.8,4.1-1.2.8-2.5,1.3-4.1,1.3s-3.2-.6-4.5-1.8-2.2-2.9-2.9-5.2c-.6-2.3-1-5.2-1-8.5s.3-5.5,1-7.4c.7-1.9,1.6-3.2,2.8-4,1.2-.8,2.5-1.2,4-1.2s3.2.6,4.5,1.8c1.2,1.2,2.2,2.9,2.9,5.2.7,2.3,1,5.2,1,8.6s-.3,5.5-1,7.3h0Z"/>
  <path class="st0" d="M334.3,52.4c-1.1.2-2.2.3-3.1.3-1.9,0-3.4-.4-4.5-1.2s-1.6-2-1.6-3.5v-19h10.8l.7-4.5h-11.5v-6.4h-2.8c-1.3,3-5.2,6.4-8.9,6.4h-12.6v-7.9c0-2.4.4-4.4,1-5.9s1.6-2.5,2.8-3.2c1.2-.7,2.4-1,3.7-1s1.9.2,2.7.7c.8.5,1.5,1,2.1,1.6s1.3,1.1,2.1,1.6,1.6.7,2.5.7,2.1-.4,2.9-1.1c.8-.8,1.2-1.8,1.2-2.9s-.2-1.2-.5-1.8-.8-1-1.5-1.4-1.5-.7-2.5-1c-1-.2-2.3-.3-3.7-.3-2.9,0-5.6.4-8.2,1.3-2.6.9-5,2.2-7,4s-3.7,4.1-4.9,6.8c-1.2,2.7-1.8,6-1.8,9.7l-6.7,2.7v1.5l6.7,1.7v24.3l-5.2,2v1.5h20.2v-1.5l-6-2.1v-25.4h15.2v20.3c0,2.2.4,4,1.3,5.4s2,2.5,3.5,3.2,3.3,1,5.3,1,2.1-.2,3.2-.5,2.4-.9,3.8-1.7,3-1.8,4.6-3.1v-2.1c-1.3.4-2.5.7-3.7.9h0Z"/>
</svg>