<svg width="38" height="38" viewBox="0 0 38 38" fill="none" xmlns="http://www.w3.org/2000/svg">
<path d="M23.75 0C25.509 0 27.0453 0.957422 27.8617 2.375H28.5C31.1199 2.375 33.25 4.50508 33.25 7.125V33.25C33.25 35.8699 31.1199 38 28.5 38H9.5C6.88008 38 4.75 35.8699 4.75 33.25V7.125C4.75 4.50508 6.88008 2.375 9.5 2.375H10.1383C10.9547 0.957422 12.491 0 14.25 0H23.75ZM19 28.5C17.6863 28.5 16.625 29.5613 16.625 30.875C16.625 32.1887 17.6863 33.25 19 33.25C20.3137 33.25 21.375 32.1887 21.375 30.875C21.375 29.5613 20.3137 28.5 19 28.5ZM19 14.25C17.6492 14.25 16.573 15.4004 16.6695 16.7512L17.2188 24.4699C17.2855 25.4051 18.0648 26.125 18.9926 26.125C19.9277 26.125 20.6996 25.4051 20.7664 24.4699L21.3156 16.7512C21.4121 15.4004 20.3434 14.25 18.9852 14.25H19ZM14.8438 4.75C13.8566 4.75 13.0625 5.54414 13.0625 6.53125C13.0625 7.51836 13.8566 8.3125 14.8438 8.3125H23.1562C24.1434 8.3125 24.9375 7.51836 24.9375 6.53125C24.9375 5.54414 24.1434 4.75 23.1562 4.75H14.8438Z" fill="#88E2B5"/>
</svg>
